<svg xmlns="http://www.w3.org/2000/svg" xmlns:xlink="http://www.w3.org/1999/xlink" width="500" zoomAndPan="magnify" viewBox="0 0 375 374.999991" height="500" preserveAspectRatio="xMidYMid meet" version="1.0"><defs><clipPath id="170f34d52a"><path d="M 24.945312 24.945312 L 350.054688 24.945312 L 350.054688 350.054688 L 24.945312 350.054688 Z M 24.945312 24.945312 " clip-rule="nonzero"/></clipPath><clipPath id="bb032a542b"><path d="M 42.195312 24.945312 L 332.804688 24.945312 C 337.378906 24.945312 341.765625 26.765625 345 30 C 348.234375 33.234375 350.054688 37.621094 350.054688 42.195312 L 350.054688 332.804688 C 350.054688 337.378906 348.234375 341.765625 345 345 C 341.765625 348.234375 337.378906 350.054688 332.804688 350.054688 L 42.195312 350.054688 C 37.621094 350.054688 33.234375 348.234375 30 345 C 26.765625 341.765625 24.945312 337.378906 24.945312 332.804688 L 24.945312 42.195312 C 24.945312 37.621094 26.765625 33.234375 30 30 C 33.234375 26.765625 37.621094 24.945312 42.195312 24.945312 Z M 42.195312 24.945312 " clip-rule="nonzero"/></clipPath><clipPath id="aa6be1dc43"><path d="M 24.945312 24.945312 L 349.695312 24.945312 L 349.695312 349.695312 L 24.945312 349.695312 Z M 24.945312 24.945312 " clip-rule="nonzero"/></clipPath><clipPath id="97f7a560d9"><path d="M 42.195312 24.945312 L 332.800781 24.945312 C 337.375 24.945312 341.761719 26.765625 344.996094 30 C 348.230469 33.234375 350.046875 37.621094 350.046875 42.195312 L 350.046875 332.796875 C 350.046875 337.375 348.230469 341.761719 344.996094 344.996094 C 341.761719 348.230469 337.375 350.046875 332.800781 350.046875 L 42.195312 350.046875 C 37.621094 350.046875 33.234375 348.230469 30 344.996094 C 26.765625 341.761719 24.945312 337.375 24.945312 332.796875 L 24.945312 42.195312 C 24.945312 37.621094 26.765625 33.234375 30 30 C 33.234375 26.765625 37.621094 24.945312 42.195312 24.945312 Z M 42.195312 24.945312 " clip-rule="nonzero"/></clipPath><clipPath id="41ab5b3746"><path d="M 159.058594 154.25 L 261.726562 154.25 L 261.726562 297.609375 L 159.058594 297.609375 Z M 159.058594 154.25 " clip-rule="nonzero"/></clipPath><clipPath id="32d514cfd7"><path d="M 118.757812 50.855469 L 243.953125 50.855469 L 243.953125 324.125 L 118.757812 324.125 Z M 118.757812 50.855469 " clip-rule="nonzero"/></clipPath><clipPath id="bfe13e4f7b"><path d="M 36.226562 131.832031 L 112 131.832031 L 112 264.226562 L 36.226562 264.226562 Z M 36.226562 131.832031 " clip-rule="nonzero"/></clipPath><clipPath id="44058c3284"><path d="M 263 131.832031 L 338.773438 131.832031 L 338.773438 264.226562 L 263 264.226562 Z M 263 131.832031 " clip-rule="nonzero"/></clipPath></defs><g clip-path="url(#170f34d52a)"><g clip-path="url(#bb032a542b)"><path fill="#91a3f1" d="M 24.945312 24.945312 L 350.054688 24.945312 L 350.054688 350.054688 L 24.945312 350.054688 Z M 24.945312 24.945312 " fill-opacity="1" fill-rule="nonzero"/></g></g><g clip-path="url(#aa6be1dc43)"><g clip-path="url(#97f7a560d9)"><path stroke-linecap="butt" transform="matrix(0.75, 0, 0, 0.75, 24.947074, 24.947069)" fill="none" stroke-linejoin="miter" d="M 22.997653 -0.00234243 L 410.466429 -0.00234243 C 416.570596 -0.00234243 422.419554 2.424741 426.732055 6.737241 C 431.044555 11.049742 433.46643 16.8987 433.46643 22.997659 L 433.46643 410.466435 C 433.46643 416.570602 431.044555 422.41956 426.732055 426.732061 C 422.419554 431.044561 416.570596 433.466436 410.466429 433.466436 L 22.997653 433.466436 C 16.898694 433.466436 11.049736 431.044561 6.737235 426.732061 C 2.424735 422.41956 -0.00234843 416.570602 -0.00234843 410.466435 L -0.00234843 22.997659 C -0.00234843 16.8987 2.424735 11.049742 6.737235 6.737241 C 11.049736 2.424741 16.898694 -0.00234243 22.997653 -0.00234243 Z M 22.997653 -0.00234243 " stroke="#4f63bd" stroke-width="4" stroke-opacity="1" stroke-miterlimit="4"/></g></g><g clip-path="url(#41ab5b3746)"><path fill="#4f63bd" d="M 260.484375 195.621094 C 264.878906 174.414062 260.03125 154.304688 227.640625 154.304688 C 220.859375 154.304688 214.65625 155.246094 209.082031 157.019531 L 180.8125 220.519531 C 184.878906 226.152344 191.429688 231.175781 200.753906 236.5625 C 215.277344 244.886719 218.875 250.507812 216.773438 260.066406 C 215.050781 267.914062 210.710938 274.117188 201.4375 274.117188 C 191.894531 274.117188 190.363281 266.3125 192.054688 254.96875 L 160.53125 254.96875 C 156.054688 278.417969 162.164062 297.554688 195.96875 297.554688 C 227.171875 297.554688 244.597656 279.363281 249.617188 256.535156 C 254.71875 233.3125 246.179688 222.410156 223.25 209.519531 C 209.78125 202.015625 207.574219 197.933594 209.316406 190.019531 C 211.003906 182.316406 215.191406 177.738281 222.292969 177.738281 C 231.363281 177.738281 231.320312 186.003906 229.742188 195.621094 L 260.484375 195.621094 " fill-opacity="1" fill-rule="nonzero"/></g><g clip-path="url(#32d514cfd7)"><path fill="#4f63bd" d="M 243.648438 50.855469 C 232.214844 73.082031 221.125 95.480469 210.375 118.039062 L 181.378906 118.039062 L 165.75 159.285156 C 159.0625 176.792969 151.554688 195.347656 146.503906 211.8125 L 145.585938 211.8125 C 147.664062 195.863281 149.265625 176.589844 150.183594 158.886719 L 152.878906 118.53125 L 119.023438 118.53125 L 118.757812 243.320312 L 154.878906 243.320312 C 143.894531 270.070312 133.375 297.011719 123.324219 324.125 C 168.835938 235.539062 209.078125 144.257812 243.648438 50.855469 " fill-opacity="1" fill-rule="nonzero"/></g><g clip-path="url(#bfe13e4f7b)"><path fill="#4f63bd" d="M 36.226562 198 C 36.226562 195.628906 37.136719 193.253906 38.941406 191.453125 L 95.886719 134.503906 C 99.519531 130.875 105.390625 130.875 109.011719 134.503906 C 112.632812 138.125 112.632812 143.996094 109.011719 147.617188 L 58.621094 198 L 109.003906 248.390625 C 112.625 252.011719 112.625 257.886719 109.003906 261.507812 C 105.382812 265.128906 99.507812 265.128906 95.886719 261.507812 L 38.941406 204.558594 C 37.128906 202.757812 36.226562 200.375 36.226562 198 Z M 36.226562 198 " fill-opacity="1" fill-rule="nonzero"/></g><g clip-path="url(#44058c3284)"><path fill="#4f63bd" d="M 338.773438 198 C 338.773438 195.628906 337.863281 193.253906 336.058594 191.453125 L 279.113281 134.503906 C 275.480469 130.875 269.609375 130.875 265.988281 134.503906 C 262.367188 138.125 262.367188 143.996094 265.988281 147.617188 L 316.378906 198 L 265.996094 248.390625 C 262.375 252.011719 262.375 257.886719 265.996094 261.507812 C 269.617188 265.128906 275.492188 265.128906 279.113281 261.507812 L 336.058594 204.558594 C 337.871094 202.757812 338.773438 200.375 338.773438 198 Z M 338.773438 198 " fill-opacity="1" fill-rule="nonzero"/></g></svg>